<?xml version="1.0" standalone="no"?>
<svg class="icon" style="" viewBox="0 0 1024 1024" version="1.1" xmlns="http://www.w3.org/2000/svg" p-id="7246"
     width="200" height="200">
    <path d="M581.559239 859.996762c0-69.515237 0-138.406257 0-207.743438-46.217624 0-92.226494 0-138.831952 0 0 68.951395 0 138.099265 0 207.950146-2.505054 0-4.423753 0-6.342452 0-66.378803 0-132.756583 0.010233-199.135386-0.00614-23.147186-0.00614-37.805024-14.767332-37.806047-38.014802-0.002047-84.464717 0.041956-168.930457-0.095167-253.395174-0.008186-4.825912 1.521656-7.892761 5.228071-10.942213 101.372805-83.400478 202.64942-166.91966 303.947524-250.41326 1.098008-0.904603 2.261507-1.730411 3.676739-2.808976 14.867616 12.247952 29.639041 24.400736 44.393069 36.573987C644.461871 413.697113 732.312708 486.216777 820.246433 558.63411c3.098571 2.551102 4.41659 5.120624 4.412496 9.141194-0.097214 85.36932-0.031722 170.738639-0.098237 256.107959-0.016373 20.839631-15.07637 36.226063-35.788088 36.268018-67.824735 0.1361-135.64947 0.052189-203.475228 0.044002C584.242348 860.19426 583.186296 860.08579 581.559239 859.996762zM511.971347 256.700453c-33.731242 28.126594-67.056232 55.917544-100.385315 83.703377-90.703815 75.616188-181.402513 151.23954-272.125771 226.832192-11.286044 9.403161-20.447704 8.577353-29.90203-2.569522-9.94142-11.721973-19.85828-23.465434-29.688159-35.280528-7.992021-9.606799-7.109931-19.586081 2.40477-27.514657 129.337717-107.778702 258.672364-215.561497 388.055107-323.285964 24.181749-20.133549 59.603493-19.676132 84.409458 0.961908 33.086559 27.526937 66.081021 55.164391 99.119485 82.747609 10.244318 8.552793 20.506033 17.084097 31.850405 26.533306 0-3.039219 0-4.89959 0-6.759961-0.002047-32.199353-0.010233-64.398706-0.001023-96.598059 0.004093-13.748119 6.073322-19.796882 19.866467-19.801998 32.561603-0.01228 65.122183-0.007163 97.682763-0.011256 15.582907-0.002047 21.324678 5.678326 21.325701 21.171182 0.00614 70.367651 0.056282 140.736325-0.116657 211.103976-0.01228 4.857635 1.555425 7.918343 5.187139 10.917654 37.375236 30.853705 74.632791 61.850673 111.923092 92.806709 9.558703 7.934716 10.613732 17.778922 2.648316 27.431769-10.242272 12.412704-20.579711 24.750707-31.051203 36.97103-8.124028 9.480932-17.884322 10.194176-27.544333 2.140757-82.365916-68.664869-164.707272-137.358391-247.054769-206.045773-41.105187-34.286897-82.205257-68.578911-123.311467-102.863762C514.309602 258.493286 513.308809 257.749342 511.971347 256.700453z"
          p-id="7247" fill="#ffffff"></path>
</svg>